<svg width="48" height="48" viewBox="0 0 48 48" fill="none" xmlns="http://www.w3.org/2000/svg">
<g clip-path="url(#clip0_4_1144)">
<path d="M35.999 0H12.001C5.37075 0 0 5.37316 0 12.001V35.999C0 42.6268 5.37075 48 12.001 48H35.999C42.65 48 48 42.6268 48 35.999V12.001C48 5.37316 42.6293 0 35.999 0ZM35.999 3.54001C37.1228 3.5496 38.2337 3.77609 39.2681 4.20654C40.3026 4.63699 41.2404 5.26297 42.0279 6.04871C42.8154 6.83445 43.4372 7.76455 43.8578 8.78587C44.2784 9.80719 44.4895 10.8997 44.4791 12.001V35.999C44.4895 37.1003 44.2784 38.1928 43.8578 39.2141C43.4372 40.2354 42.8154 41.1656 42.0279 41.9513C41.2404 42.737 40.3026 43.363 39.2681 43.7935C38.2337 44.2239 37.1228 44.4504 35.999 44.46H12.001C9.73427 44.4363 7.56975 43.532 5.98286 41.9456C4.39598 40.3592 3.51649 38.2204 3.53754 35.999V12.001C3.51649 9.77962 4.39598 7.64084 5.98286 6.05443C7.56975 4.46801 9.73427 3.56367 12.001 3.54001H35.999Z" fill="white"/>
<path d="M22.568 8.98651H27.0907L16.3575 39.0135H11.8348L22.568 8.98651Z" fill="#E5007B"/>
<path d="M31.6466 8.98651H36.1652L25.432 39.0135H20.9093L31.6466 8.98651Z" fill="#E5007B"/>
</g>
<defs>
<clipPath id="clip0_4_1144">
<rect width="48" height="48" fill="white"/>
</clipPath>
</defs>
</svg>
