<svg width="16" height="17" viewBox="0 0 16 17" fill="none" xmlns="http://www.w3.org/2000/svg">
<g clip-path="url(#clip0_32_305)">
<path d="M8.00003 1.13596C3.58003 1.13596 3.05176e-05 4.65596 3.05176e-05 8.99729C3.05176e-05 12.4713 2.29203 15.4173 5.47003 16.456C5.87003 16.53 6.0167 16.2866 6.0167 16.078C6.0167 15.8913 6.01003 15.3966 6.0067 14.7413C3.78136 15.2153 3.31203 13.6866 3.31203 13.6866C2.94803 12.7793 2.42203 12.5366 2.42203 12.5366C1.69736 12.0493 2.47803 12.0593 2.47803 12.0593C3.28136 12.114 3.70336 12.8693 3.70336 12.8693C4.4167 14.0713 5.57603 13.724 6.03336 13.5233C6.10536 13.0146 6.31136 12.6686 6.54003 12.472C4.76336 12.2753 2.89603 11.5993 2.89603 8.58729C2.89603 7.72929 3.20603 7.02796 3.71936 6.47796C3.62936 6.27929 3.35936 5.47996 3.78936 4.39729C3.78936 4.39729 4.45936 4.18662 5.98936 5.20329C6.62936 5.02862 7.30936 4.94196 7.98937 4.93796C8.66936 4.94196 9.34937 5.02862 9.98937 5.20329C11.5094 4.18662 12.1794 4.39729 12.1794 4.39729C12.6094 5.47996 12.3394 6.27929 12.2594 6.47796C12.7694 7.02796 13.0794 7.72929 13.0794 8.58729C13.0794 11.6073 11.2094 12.272 9.42937 12.4653C9.70936 12.7013 9.96937 13.1833 9.96937 13.92C9.96937 14.972 9.95936 15.8173 9.95936 16.0726C9.95936 16.2786 10.0994 16.5246 10.5094 16.446C13.71 15.414 16 12.466 16 8.99729C16 4.65596 12.418 1.13596 8.00003 1.13596Z" fill="#F1F1F1"/>
</g>
<defs>
<clipPath id="clip0_32_305">
<rect width="16" height="16" fill="white" transform="translate(0 0.802612)"/>
</clipPath>
</defs>
</svg>
