<svg width="39" height="39" viewBox="0 0 39 39" fill="none" xmlns="http://www.w3.org/2000/svg">
<mask id="mask0_32_268" style="mask-type:luminance" maskUnits="userSpaceOnUse" x="0" y="0" width="39" height="39">
<path d="M38.1729 0.226257H0.246948V38.1522H38.1729V0.226257Z" fill="white"/>
</mask>
<g mask="url(#mask0_32_268)">
<path d="M0.246948 0.226257H25.5309V25.5102H0.246948V0.226257Z" fill="#F7DF1E"/>
<path d="M0.246948 0.226257H38.1729V38.1522H0.246948V0.226257Z" fill="#F7DF1E"/>
<path d="M10.2191 31.9199L13.1214 30.1635C13.6813 31.1562 14.1906 31.9962 15.4124 31.9962C16.5835 31.9962 17.3221 31.5381 17.3221 29.7562V17.638H20.8861V29.8066C20.8861 33.498 18.7222 35.1782 15.5652 35.1782C12.7141 35.1782 11.0593 33.702 10.2191 31.9199ZM22.822 31.538L25.7238 29.8578C26.4879 31.1054 27.4808 32.0218 29.2372 32.0218C30.7141 32.0218 31.6557 31.2834 31.6557 30.2651C31.6557 29.0432 30.6883 28.6103 29.059 27.8976L28.1682 27.5155C25.5968 26.4211 23.8912 25.0462 23.8912 22.144C23.8912 19.4708 25.9277 17.4341 29.1101 17.4341C31.3758 17.4341 33.0052 18.2234 34.1762 20.2855L31.401 22.0677C30.79 20.9731 30.1283 20.5403 29.1099 20.5403C28.0661 20.5403 27.4042 21.2022 27.4042 22.0677C27.4042 23.1369 28.0661 23.57 29.5935 24.2319L30.4844 24.6136C33.5141 25.9122 35.2197 27.2359 35.2197 30.2143C35.2197 33.4223 32.6994 35.1787 29.3135 35.1787C26.004 35.1787 23.8656 33.6002 22.822 31.538Z" fill="black"/>
</g>
</svg>
