<svg width="16" height="17" viewBox="0 0 16 17" fill="none" xmlns="http://www.w3.org/2000/svg">
<g clip-path="url(#clip0_32_300)">
<path d="M15.996 16.8026L16 16.8019V10.9339C16 8.06326 15.382 5.85193 12.026 5.85193C10.4127 5.85193 9.33 6.73726 8.888 7.5766H8.84133V6.11993H5.65933V16.8019H8.97267V11.5126C8.97267 10.1199 9.23667 8.77326 10.9613 8.77326C12.6607 8.77326 12.686 10.3626 12.686 11.6019V16.8026H15.996Z" fill="#F1F1F1"/>
<path d="M0.263977 6.12061H3.58131V16.8026H0.263977V6.12061Z" fill="#F1F1F1"/>
<path d="M1.92152 0.802582C0.86085 0.802582 0.000183105 1.66325 0.000183105 2.72392C0.000183105 3.78458 0.86085 4.66325 1.92152 4.66325C2.98218 4.66325 3.84285 3.78458 3.84285 2.72392C3.84218 1.66325 2.98152 0.802582 1.92152 0.802582Z" fill="#F1F1F1"/>
</g>
<defs>
<clipPath id="clip0_32_300">
<rect width="16" height="16" fill="white" transform="translate(0 0.802612)"/>
</clipPath>
</defs>
</svg>
