<svg width="13" height="14" viewBox="0 0 13 14" fill="none" xmlns="http://www.w3.org/2000/svg">
<g clip-path="url(#clip0_55_344)">
<path d="M2.61655 2.41204C3.30702 1.74563 4.12018 1.25966 5.0368 0.958934C5.18836 0.910818 5.35436 0.867514 5.40488 0.867514C5.58532 0.862701 5.75373 0.990211 5.80906 1.17305C5.84755 1.30537 5.80425 1.43288 5.65268 1.62775C5.05364 2.3952 4.74088 3.3479 4.73847 4.41368C4.73607 5.65267 5.21242 6.79302 6.09535 7.67595C6.96866 8.54686 8.11863 9.0208 9.35763 9.0208C10.1082 9.0208 10.6953 8.88367 11.3761 8.55167C11.6696 8.40732 11.9126 8.25575 12.2927 7.97668C12.425 7.87804 12.4731 7.85639 12.579 7.84677C12.7522 7.83233 12.8918 7.9045 12.9543 8.04164C13.0145 8.17636 13.012 8.22207 12.9278 8.53002C12.5429 9.92057 11.7177 11.1187 10.5822 11.9342C9.52363 12.6969 8.40011 13.0794 7.08173 13.1275C5.39767 13.1877 3.72082 12.5213 2.5131 11.3087C0.605298 9.39611 0.145789 6.54282 1.3511 4.12017C1.6831 3.45616 2.05841 2.94854 2.61655 2.41204Z" fill="#7C5AED"/>
</g>
<defs>
<clipPath id="clip0_55_344">
<rect width="12.3177" height="12.3177" fill="white" transform="translate(0.682251 0.841141)"/>
</clipPath>
</defs>
</svg>
