<svg width="13" height="14" viewBox="0 0 13 14" fill="none" xmlns="http://www.w3.org/2000/svg">
<g opacity="0.5">
<path d="M5.14047 2.8511C4.51079 3.05768 3.95218 3.39153 3.47786 3.84933C3.09443 4.21788 2.83661 4.5666 2.60854 5.02274C1.78054 6.68701 2.09621 8.64711 3.40679 9.961C4.23645 10.794 5.38838 11.2518 6.54526 11.2104C7.45094 11.1774 8.22275 10.9146 8.94994 10.3907C9.73001 9.83044 10.2969 9.00739 10.5613 8.05213C10.6192 7.84059 10.6208 7.80919 10.5795 7.71664C10.5365 7.62243 10.4407 7.57285 10.3217 7.58277C10.249 7.58938 10.2159 7.60425 10.125 7.67201C9.86388 7.86373 9.69695 7.96785 9.49533 8.06701C9.02761 8.29508 8.62435 8.38928 8.10871 8.38928C7.25758 8.38928 6.46759 8.0637 5.86766 7.46543C5.26112 6.85889 4.93388 6.07551 4.93554 5.22437C4.93719 4.49223 5.15204 3.83776 5.56356 3.31055C5.66768 3.17668 5.69743 3.08909 5.67099 2.99819C5.63297 2.87258 5.51729 2.78499 5.39333 2.78829C5.35863 2.78829 5.24459 2.81804 5.14047 2.8511Z" fill="#3A3B40"/>
</g>
</svg>
