<svg width="16" height="16" viewBox="0 0 16 16" fill="none" xmlns="http://www.w3.org/2000/svg">
<path d="M7.27227 2.23973C7.50133 1.53476 8.49867 1.53476 8.72773 2.23973L9.62432 4.99914C9.72676 5.31441 10.0206 5.52786 10.352 5.52786H13.2535C13.9947 5.52786 14.3029 6.4764 13.7032 6.91209L11.3559 8.6175C11.0877 8.81235 10.9755 9.15773 11.078 9.473L11.9745 12.2324C12.2036 12.9374 11.3967 13.5236 10.7971 13.0879L8.44976 11.3825C8.18158 11.1877 7.81842 11.1877 7.55024 11.3825L5.20294 13.0879C4.60326 13.5236 3.79639 12.9374 4.02545 12.2324L4.92204 9.473C5.02447 9.15773 4.91225 8.81235 4.64407 8.6175L2.29677 6.91209C1.69709 6.4764 2.00529 5.52786 2.74654 5.52786H5.64795C5.97945 5.52786 6.27324 5.31441 6.37568 4.99914L7.27227 2.23973Z" fill="#E28C00"/>
</svg>
