<svg width="13" height="14" viewBox="0 0 13 14" fill="none" xmlns="http://www.w3.org/2000/svg">
<g clip-path="url(#clip0_57_352)">
<path d="M6.53943 0.875321C6.44561 0.918626 6.37103 0.9908 6.3181 1.08944C6.27961 1.15921 6.2748 1.24582 6.2748 1.90501L6.2748 2.64118L6.34697 2.74463C6.43598 2.86974 6.55387 2.93469 6.69581 2.93469C6.83775 2.93469 6.95564 2.86974 7.04465 2.74463L7.11683 2.64118L7.11683 1.90501C7.11683 1.17845 7.11683 1.16402 7.0615 1.07019C6.95564 0.882539 6.71265 0.793524 6.53943 0.875321Z" fill="#D818A5"/>
<path d="M2.44233 2.57624C2.21377 2.68931 2.14641 2.95154 2.28835 3.1801C2.31482 3.2234 2.55299 3.4712 2.81523 3.73103C3.16888 4.07987 3.31564 4.20978 3.383 4.23143C3.71019 4.33969 4.02535 4.0101 3.90506 3.68772C3.86657 3.58908 2.90424 2.62676 2.78636 2.57143C2.66126 2.51369 2.56983 2.51369 2.44233 2.57624Z" fill="#D818A5"/>
<path d="M10.6052 2.57153C10.4873 2.62686 9.525 3.59159 9.48651 3.68782C9.42877 3.8442 9.47448 4.02704 9.59718 4.14252C9.71747 4.25559 9.82813 4.27965 10.0038 4.23154C10.0783 4.20988 10.1938 4.11125 10.5763 3.73113C10.8386 3.4713 11.0816 3.21388 11.1152 3.15855C11.3197 2.81211 10.9613 2.39831 10.6052 2.57153Z" fill="#D818A5"/>
<path d="M6.40709 3.92113C4.93714 4.05345 3.75588 5.24673 3.61635 6.74074C3.51771 7.83057 4.05661 8.94927 4.98044 9.56515C6.2868 10.4337 8.01657 10.2027 9.01979 9.02625C9.46728 8.50179 9.71267 7.9268 9.77281 7.26039C9.92919 5.57873 8.66133 4.07992 6.94839 3.92113C6.80404 3.9091 6.66691 3.89948 6.64767 3.89948C6.62842 3.90189 6.52016 3.91151 6.40709 3.92113ZM7.32851 4.84496C8.08875 5.07351 8.61802 5.60038 8.85379 6.36784C8.91394 6.56271 8.91875 6.61082 8.91875 7.00056C8.91875 7.39031 8.91394 7.43842 8.85379 7.63329C8.7311 8.03266 8.53142 8.36466 8.25715 8.62689C7.99251 8.87709 7.70382 9.04309 7.32851 9.15857C7.13364 9.21872 7.08552 9.22353 6.69578 9.22353C6.30604 9.22353 6.25793 9.21872 6.06306 9.15857C5.2956 8.9228 4.77354 8.40074 4.53777 7.63329C4.47763 7.43842 4.47282 7.39031 4.47282 7.00056C4.47282 6.61082 4.47763 6.56271 4.53777 6.36784C4.79279 5.53783 5.38702 4.99172 6.24109 4.79925C6.34935 4.77519 6.50091 4.76557 6.75593 4.77279C7.06147 4.78 7.15048 4.79203 7.32851 4.84496Z" fill="#D818A5"/>
<path d="M0.883359 6.5891C0.84246 6.59872 0.777503 6.62759 0.73901 6.64924C0.46956 6.80803 0.488806 7.23626 0.770286 7.3758C0.854489 7.4167 0.921852 7.42151 1.60029 7.42151H2.33647L2.43992 7.34933C2.56502 7.26032 2.62998 7.14244 2.62998 7.00049C2.62998 6.85855 2.56502 6.74067 2.43992 6.65165L2.33647 6.57948L1.64841 6.57466C1.26829 6.57226 0.924257 6.57948 0.883359 6.5891Z" fill="#D818A5"/>
<path d="M11.0816 6.5891C10.8963 6.63481 10.7616 6.81043 10.7616 7.0053C10.7616 7.14244 10.8266 7.26032 10.9517 7.34933L11.0551 7.42151H11.7913C12.5179 7.42151 12.5323 7.42151 12.6261 7.36618C12.7729 7.28197 12.8426 7.16409 12.8426 7.00049C12.8426 6.8369 12.7729 6.71901 12.6261 6.63481C12.5323 6.58188 12.513 6.57948 11.8442 6.57466C11.4665 6.57226 11.1225 6.57948 11.0816 6.5891Z" fill="#D818A5"/>
<path d="M3.37816 9.77205C3.27712 9.80092 2.37013 10.6838 2.2763 10.8426C2.12714 11.0976 2.2739 11.42 2.565 11.4681C2.74062 11.497 2.80318 11.4513 3.34929 10.9124C3.63077 10.6333 3.87617 10.3711 3.89541 10.3278C3.96037 10.1762 3.92909 10.003 3.81362 9.8779C3.69573 9.7528 3.55619 9.71912 3.37816 9.77205Z" fill="#D818A5"/>
<path d="M9.67899 9.79612C9.49374 9.88995 9.40473 10.0872 9.46247 10.2797C9.48652 10.3615 9.58276 10.4746 9.98693 10.8835C10.598 11.4994 10.6822 11.5475 10.93 11.4224C11.1153 11.3286 11.2043 11.1313 11.1465 10.9389C11.1225 10.8571 11.0262 10.744 10.6221 10.335C10.011 9.71913 9.92679 9.67102 9.67899 9.79612Z" fill="#D818A5"/>
<path d="M6.50335 11.1121C6.45764 11.1362 6.38787 11.2012 6.34697 11.2565L6.2748 11.3599L6.2748 12.0961C6.2748 12.8227 6.2748 12.8371 6.33013 12.9309C6.41433 13.0777 6.53222 13.1475 6.69581 13.1475C6.85941 13.1475 6.97729 13.0777 7.0615 12.9309C7.11683 12.8371 7.11683 12.8227 7.11683 12.0961L7.11683 11.3599L7.04465 11.2565C6.95564 11.1314 6.83775 11.0664 6.69581 11.0664C6.63567 11.0664 6.54906 11.0857 6.50335 11.1121Z" fill="#D818A5"/>
</g>
<defs>
<clipPath id="clip0_57_352">
<rect width="12.3177" height="12.3177" fill="white" transform="translate(0.53688 0.841797)"/>
</clipPath>
</defs>
</svg>
