<svg width="13" height="14" viewBox="0 0 13 14" fill="none" xmlns="http://www.w3.org/2000/svg">
<g opacity="0.5">
<path d="M6.05049 2.8085C5.98624 2.83815 5.93516 2.88758 5.89892 2.95512C5.87256 3.0029 5.86926 3.06221 5.86926 3.51363L5.86926 4.01777L5.91869 4.08861C5.97965 4.17428 6.06037 4.21877 6.15758 4.21877C6.25478 4.21877 6.33551 4.17428 6.39647 4.08861L6.44589 4.01777L6.44589 3.51363C6.44589 3.01608 6.44589 3.0062 6.408 2.94194C6.33551 2.81344 6.16911 2.75248 6.05049 2.8085Z" fill="#F1F1F1"/>
<path d="M3.24481 3.97325C3.08829 4.05068 3.04216 4.23026 3.13937 4.38678C3.15749 4.41643 3.32059 4.58612 3.50017 4.76406C3.74236 5.00294 3.84286 5.09191 3.88899 5.10674C4.11305 5.18088 4.32887 4.95517 4.2465 4.7344C4.22014 4.66685 3.56113 4.00785 3.4804 3.96996C3.39473 3.93041 3.33213 3.93041 3.24481 3.97325Z" fill="#F1F1F1"/>
<path d="M8.83476 3.96998C8.75403 4.00787 8.09503 4.66852 8.06867 4.73442C8.02912 4.84151 8.06043 4.96672 8.14445 5.0458C8.22683 5.12324 8.30261 5.13971 8.42288 5.10676C8.47395 5.09193 8.55303 5.02439 8.81499 4.76408C8.99457 4.58615 9.16097 4.40986 9.18403 4.37197C9.32407 4.13473 9.07859 3.85136 8.83476 3.96998Z" fill="#F1F1F1"/>
<path d="M5.95987 4.89421C4.95324 4.98482 4.14431 5.80199 4.04875 6.82509C3.9812 7.57142 4.35025 8.33751 4.98289 8.75927C5.87749 9.35402 7.06205 9.19586 7.74907 8.39023C8.0555 8.03107 8.22355 7.63732 8.26474 7.18096C8.37183 6.02935 7.50359 5.00295 6.33056 4.89421C6.23171 4.88597 6.1378 4.87938 6.12462 4.87938C6.11144 4.88103 6.0373 4.88762 5.95987 4.89421ZM6.59086 5.52686C7.11148 5.68337 7.47393 6.04417 7.63539 6.56973C7.67658 6.70318 7.67987 6.73613 7.67987 7.00303C7.67987 7.26992 7.67658 7.30287 7.63539 7.43632C7.55136 7.70981 7.41462 7.93716 7.2268 8.11674C7.04558 8.28808 6.84788 8.40176 6.59086 8.48084C6.45742 8.52203 6.42447 8.52533 6.15757 8.52533C5.89067 8.52533 5.85772 8.52203 5.72427 8.48084C5.19872 8.31939 4.84121 7.96188 4.67975 7.43632C4.63856 7.30287 4.63527 7.26992 4.63527 7.00303C4.63527 6.73613 4.63856 6.70318 4.67975 6.56973C4.85439 6.00134 5.26132 5.62735 5.84619 5.49555C5.92033 5.47908 6.02412 5.47249 6.19876 5.47743C6.40799 5.48237 6.46895 5.49061 6.59086 5.52686Z" fill="#F1F1F1"/>
<path d="M2.17718 6.7213C2.14918 6.72789 2.10469 6.74766 2.07833 6.76249C1.89381 6.87123 1.90699 7.16449 2.09975 7.26004C2.15741 7.28805 2.20355 7.29134 2.66814 7.29134H3.17228L3.24313 7.24192C3.3288 7.18096 3.37328 7.10023 3.37328 7.00303C3.37328 6.90583 3.3288 6.8251 3.24313 6.76414L3.17228 6.71471L2.70109 6.71142C2.44079 6.70977 2.20519 6.71471 2.17718 6.7213Z" fill="#F1F1F1"/>
<path d="M9.16101 6.7213C9.03416 6.75261 8.94189 6.87288 8.94189 7.00632C8.94189 7.10023 8.98638 7.18096 9.07205 7.24192L9.14289 7.29134H9.64703C10.1446 7.29134 10.1545 7.29134 10.2187 7.25345C10.3192 7.19579 10.367 7.11506 10.367 7.00303C10.367 6.891 10.3192 6.81027 10.2187 6.75261C10.1545 6.71636 10.1413 6.71471 9.68328 6.71142C9.42462 6.70977 9.18902 6.71471 9.16101 6.7213Z" fill="#F1F1F1"/>
<path d="M3.88566 8.90095C3.81647 8.92072 3.19535 9.52536 3.1311 9.6341C3.02895 9.80873 3.12945 10.0295 3.3288 10.0624C3.44907 10.0822 3.49191 10.0509 3.86589 9.68187C4.05865 9.49076 4.2267 9.31118 4.23988 9.28153C4.28436 9.17774 4.26294 9.05911 4.18386 8.97344C4.10313 8.88777 4.00758 8.86471 3.88566 8.90095Z" fill="#F1F1F1"/>
<path d="M8.2005 8.91741C8.07365 8.98166 8.01269 9.11676 8.05223 9.24856C8.0687 9.30458 8.1346 9.38201 8.41139 9.66209C8.82985 10.0838 8.88752 10.1168 9.05721 10.0311C9.18407 9.96687 9.24503 9.83178 9.20549 9.69998C9.18901 9.64396 9.12311 9.56653 8.84633 9.28645C8.42786 8.86469 8.3702 8.83174 8.2005 8.91741Z" fill="#F1F1F1"/>
<path d="M6.02578 9.81865C5.99447 9.83513 5.9467 9.87961 5.91869 9.9175L5.86926 9.98835L5.86926 10.4925C5.86926 10.99 5.86926 10.9999 5.90716 11.0642C5.96482 11.1647 6.04555 11.2124 6.15758 11.2124C6.26961 11.2124 6.35034 11.1647 6.408 11.0642C6.44589 10.9999 6.44589 10.99 6.44589 10.4925L6.44589 9.98835L6.39647 9.9175C6.33551 9.83183 6.25478 9.78735 6.15758 9.78735C6.11639 9.78735 6.05708 9.80053 6.02578 9.81865Z" fill="#F1F1F1"/>
</g>
</svg>
