<svg width="16" height="17" viewBox="0 0 16 17" fill="none" xmlns="http://www.w3.org/2000/svg">
<g clip-path="url(#clip0_32_308)">
<path d="M11.6714 10.3406L11.6654 10.3906C10.1994 9.65996 10.046 9.56262 9.8567 9.84662C9.72537 10.0433 9.3427 10.4893 9.22736 10.6213C9.1107 10.7513 8.9947 10.7613 8.7967 10.6713C8.5967 10.5713 7.9547 10.3613 7.1947 9.68129C6.6027 9.15129 6.20536 8.50129 6.08803 8.30129C5.8927 7.96396 6.30136 7.91596 6.67336 7.21196C6.74003 7.07196 6.70603 6.96196 6.6567 6.86262C6.6067 6.76262 6.2087 5.78262 6.04203 5.39196C5.88203 5.00262 5.71736 5.05196 5.59403 5.05196C5.21003 5.01862 4.92936 5.02396 4.68203 5.28129C3.60603 6.46396 3.87736 7.68396 4.79803 8.98129C6.60736 11.3493 7.57136 11.7853 9.33403 12.3906C9.81003 12.542 10.244 12.5206 10.5874 12.4713C10.97 12.4106 11.7654 11.9906 11.9314 11.5206C12.1014 11.0506 12.1014 10.6606 12.0514 10.5706C12.002 10.4806 11.8714 10.4306 11.6714 10.3406Z" fill="#F1F1F1"/>
<path d="M13.6801 3.10159C8.55406 -1.85374 0.0707277 1.74026 0.0673944 8.73093C0.0673944 10.1283 0.433394 11.4909 1.13073 12.6943L6.10352e-05 16.8023L4.22339 15.7009C9.4934 18.5476 15.9974 14.7676 16.0001 8.73493C16.0001 6.61759 15.1734 4.62493 13.6701 3.12759L13.6801 3.10159ZM14.6681 8.71293C14.6641 13.8016 9.07806 16.9796 4.66006 14.3823L4.42006 14.2396L1.92006 14.8896L2.59006 12.4596L2.43073 12.2096C-0.318606 7.83293 2.84006 2.11293 8.04806 2.11293C9.8174 2.11293 11.4781 2.80293 12.7287 4.05293C13.9787 5.29226 14.6681 6.95293 14.6681 8.71293Z" fill="#F1F1F1"/>
</g>
<defs>
<clipPath id="clip0_32_308">
<rect width="16" height="16" fill="white" transform="translate(0 0.802612)"/>
</clipPath>
</defs>
</svg>
